<svg width="283" height="39" viewBox="0 0 283 39" fill="none" xmlns="http://www.w3.org/2000/svg">
<path d="M20.384 29L11.328 17.672L19.808 7.656H14.208L6.656 17.192V7.656H2.112V29H6.656V22.44L8.32 20.456L14.784 29H20.384ZM28.9727 29.384C34.0928 29.384 37.1648 25.672 37.1648 21.256C37.1648 16.872 34.0928 13.16 28.9727 13.16C23.8847 13.16 20.8127 16.872 20.8127 21.256C20.8127 25.672 23.8847 29.384 28.9727 29.384ZM28.9727 25.768C26.4447 25.768 25.0367 23.688 25.0367 21.256C25.0367 18.856 26.4447 16.776 28.9727 16.776C31.5008 16.776 32.9408 18.856 32.9408 21.256C32.9408 23.688 31.5008 25.768 28.9727 25.768ZM49.3317 29.384C53.2998 29.384 56.1798 26.408 56.1798 21.256C56.1798 16.104 53.2998 13.16 49.3317 13.16C47.4437 13.16 45.7477 13.992 44.5637 15.496V13.544H40.4997V34.888H44.5637V27.016C45.8117 28.616 47.5077 29.384 49.3317 29.384ZM48.0518 25.768C46.7397 25.768 45.2357 24.968 44.5637 24.008V18.536C45.2357 17.544 46.7397 16.776 48.0518 16.776C50.3877 16.776 51.9558 18.6 51.9558 21.256C51.9558 23.944 50.3877 25.768 48.0518 25.768ZM65.108 29.384C69.716 29.384 72.564 27.464 72.564 24.744C72.564 22.408 70.1 21.192 68.212 21.064C70.26 20.744 72.244 19.4 72.244 17.416C72.244 14.792 69.524 13.16 64.692 13.192C61.876 13.192 59.636 14.248 58.132 15.752L60.116 18.152C61.332 16.968 62.9 16.392 64.916 16.392C66.74 16.392 68.02 17.032 68.02 17.96C68.02 19.048 66.964 19.624 64.852 19.624H61.684V22.76H64.852C66.964 22.76 68.308 23.304 68.308 24.488C68.308 25.48 67.188 26.152 65.108 26.152C63.252 26.152 61.204 25.608 59.764 24.392L57.908 26.92C59.412 28.392 61.908 29.384 65.108 29.384ZM79.825 29L86.385 19.304V29H90.449V13.544H86.353L79.985 22.888V13.544H75.921V29H79.825ZM98.8675 29V22.824H105.267V29H109.331V13.544H105.267V19.272H98.8675V13.544H94.8035V29H98.8675ZM127.03 29V19.016C127.03 14.568 123.798 13.16 120.278 13.16C117.846 13.16 115.414 13.928 113.526 15.592L115.062 18.312C116.374 17.096 117.91 16.488 119.574 16.488C121.622 16.488 122.966 17.512 122.966 19.08V21.16C121.942 19.944 120.118 19.272 118.07 19.272C115.606 19.272 112.694 20.648 112.694 24.264C112.694 27.72 115.606 29.384 118.07 29.384C120.086 29.384 121.91 28.648 122.966 27.4V29H127.03ZM119.702 26.632C118.102 26.632 116.79 25.8 116.79 24.36C116.79 22.856 118.102 22.024 119.702 22.024C121.014 22.024 122.294 22.472 122.966 23.368V25.288C122.294 26.184 121.014 26.632 119.702 26.632ZM154.416 29V13.544H139.888V29H143.952V17.096H150.352V29H154.416ZM158.227 35.048C158.739 35.176 159.763 35.272 160.243 35.272C162.899 35.208 164.947 34.44 166.099 31.528L173.363 13.544H168.979L164.947 24.296L160.915 13.544H156.563L162.835 29.224L162.259 30.536C161.875 31.368 161.171 31.656 160.115 31.656C159.731 31.656 159.187 31.56 158.835 31.4L158.227 35.048ZM182.697 29.384C185.865 29.384 187.785 28.008 188.809 26.568L186.153 24.104C185.417 25.128 184.297 25.768 182.889 25.768C180.425 25.768 178.697 23.944 178.697 21.256C178.697 18.568 180.425 16.776 182.889 16.776C184.297 16.776 185.417 17.352 186.153 18.44L188.809 15.944C187.785 14.536 185.865 13.16 182.697 13.16C177.929 13.16 174.505 16.52 174.505 21.256C174.505 26.024 177.929 29.384 182.697 29.384ZM198.73 29V17.096H203.05V13.544H190.314V17.096H194.634V29H198.73ZM219.262 29V19.016C219.262 14.568 216.03 13.16 212.51 13.16C210.078 13.16 207.646 13.928 205.758 15.592L207.294 18.312C208.606 17.096 210.142 16.488 211.806 16.488C213.854 16.488 215.198 17.512 215.198 19.08V21.16C214.174 19.944 212.35 19.272 210.302 19.272C207.838 19.272 204.926 20.648 204.926 24.264C204.926 27.72 207.838 29.384 210.302 29.384C212.318 29.384 214.142 28.648 215.198 27.4V29H219.262ZM211.934 26.632C210.334 26.632 209.022 25.8 209.022 24.36C209.022 22.856 210.334 22.024 211.934 22.024C213.246 22.024 214.526 22.472 215.198 23.368V25.288C214.526 26.184 213.246 26.632 211.934 26.632ZM227.71 29L230.75 23.688H233.918V29H237.982V13.544H228.606C225.182 13.544 223.262 15.88 223.262 18.6C223.262 21.352 224.926 22.952 226.686 23.4L223.102 29H227.71ZM229.246 20.296C228.094 20.296 227.39 19.592 227.39 18.6C227.39 17.64 228.126 16.968 229.246 16.968H233.918V20.296H229.246Z" fill="black"/>
<path d="M251 35.24H283V3.24H251V35.24Z" fill="black"/>
</svg>
