<svg width="210" height="46" viewBox="0 0 210 46" fill="none" xmlns="http://www.w3.org/2000/svg">
<rect width="210" height="46" rx="23" fill="#282828"/>
<path d="M46.4805 27.9277C48.5125 27.9277 49.5845 26.6477 49.5845 25.0477C49.5845 23.7037 48.6725 22.5997 47.5365 22.4237C48.5445 22.2157 49.3765 21.3197 49.3765 19.9757C49.3765 18.5517 48.3365 17.2557 46.3045 17.2557H40.6885V27.9277H46.4805ZM45.8085 21.5277H42.9605V19.2077H45.8085C46.5765 19.2077 47.0565 19.7037 47.0565 20.3757C47.0565 21.0477 46.5765 21.5277 45.8085 21.5277ZM45.8885 25.9597H42.9605V23.4797H45.8885C46.7845 23.4797 47.2645 24.0557 47.2645 24.7277C47.2645 25.4957 46.7525 25.9597 45.8885 25.9597ZM55.1219 28.1197C56.3219 28.1197 57.5379 27.7517 58.3059 27.0477L57.4099 25.7357C56.9139 26.2157 56.0019 26.5037 55.3459 26.5037C54.0339 26.5037 53.2499 25.6877 53.1219 24.7117H58.8659V24.2637C58.8659 21.7357 57.2979 20.0077 54.9939 20.0077C52.6419 20.0077 50.9939 21.8157 50.9939 24.0557C50.9939 26.5357 52.7699 28.1197 55.1219 28.1197ZM56.8979 23.3357H53.0899C53.1859 22.5677 53.7299 21.6237 54.9939 21.6237C56.3379 21.6237 56.8499 22.5997 56.8979 23.3357ZM64.9896 28.1197C66.9736 28.1197 68.4136 26.6317 68.4136 24.0557C68.4136 21.4797 66.9736 20.0077 64.9896 20.0077C64.0456 20.0077 63.1976 20.4237 62.6056 21.1757V20.1997H60.5736V30.8717H62.6056V26.9357C63.2296 27.7357 64.0776 28.1197 64.9896 28.1197ZM64.3496 26.3117C63.6936 26.3117 62.9416 25.9117 62.6056 25.4317V22.6957C62.9416 22.1997 63.6936 21.8157 64.3496 21.8157C65.5176 21.8157 66.3016 22.7277 66.3016 24.0557C66.3016 25.3997 65.5176 26.3117 64.3496 26.3117ZM72.1738 27.9277V24.8397H75.3738V27.9277H77.4058V20.1997H75.3738V23.0637H72.1738V20.1997H70.1418V27.9277H72.1738ZM79.391 30.9517C79.647 31.0157 80.159 31.0637 80.399 31.0637C81.727 31.0317 82.751 30.6477 83.327 29.1917L86.959 20.1997H84.767L82.751 25.5757L80.735 20.1997H78.559L81.695 28.0397L81.407 28.6957C81.215 29.1117 80.863 29.2557 80.335 29.2557C80.143 29.2557 79.871 29.2077 79.695 29.1277L79.391 30.9517ZM91.5781 27.9277V21.9757H93.7381V20.1997H87.3701V21.9757H89.5301V27.9277H91.5781ZM95.2524 20.1997V27.9277H99.9244C101.652 27.9277 102.612 26.7597 102.612 25.3837C102.612 24.0237 101.716 22.8557 99.9244 22.8557H97.2844V20.1997H95.2524ZM99.6204 24.5517C100.196 24.5517 100.532 24.9037 100.532 25.3837C100.532 25.8637 100.196 26.2157 99.6204 26.2157H97.2844V24.5517H99.6204ZM107.936 28.1197C109.52 28.1197 110.48 27.4317 110.992 26.7117L109.664 25.4797C109.296 25.9917 108.736 26.3117 108.032 26.3117C106.8 26.3117 105.936 25.3997 105.936 24.0557C105.936 22.7117 106.8 21.8157 108.032 21.8157C108.736 21.8157 109.296 22.1037 109.664 22.6477L110.992 21.3997C110.48 20.6957 109.52 20.0077 107.936 20.0077C105.552 20.0077 103.84 21.6877 103.84 24.0557C103.84 26.4397 105.552 28.1197 107.936 28.1197ZM114.608 27.9277L116.128 25.2717H117.712V27.9277H119.744V20.1997H115.056C113.344 20.1997 112.384 21.3677 112.384 22.7277C112.384 24.1037 113.216 24.9037 114.096 25.1277L112.304 27.9277H114.608ZM115.376 23.5757C114.8 23.5757 114.448 23.2237 114.448 22.7277C114.448 22.2477 114.816 21.9117 115.376 21.9117H117.712V23.5757H115.376ZM128.338 27.9277V24.8397H131.538V27.9277H133.57V20.1997H131.538V23.0637H128.338V20.1997H126.306V27.9277H128.338ZM142.499 27.9277V22.9357C142.499 20.7117 140.883 20.0077 139.123 20.0077C137.907 20.0077 136.691 20.3917 135.747 21.2237L136.515 22.5837C137.171 21.9757 137.939 21.6717 138.771 21.6717C139.795 21.6717 140.467 22.1837 140.467 22.9677V24.0077C139.955 23.3997 139.043 23.0637 138.019 23.0637C136.787 23.0637 135.331 23.7517 135.331 25.5597C135.331 27.2877 136.787 28.1197 138.019 28.1197C139.027 28.1197 139.939 27.7517 140.467 27.1277V27.9277H142.499ZM138.835 26.7437C138.035 26.7437 137.379 26.3277 137.379 25.6077C137.379 24.8557 138.035 24.4397 138.835 24.4397C139.491 24.4397 140.131 24.6637 140.467 25.1117V26.0717C140.131 26.5197 139.491 26.7437 138.835 26.7437ZM147.571 28.1197C149.875 28.1197 151.299 27.1597 151.299 25.7997C151.299 24.6317 150.067 24.0237 149.123 23.9597C150.147 23.7997 151.139 23.1277 151.139 22.1357C151.139 20.8237 149.779 20.0077 147.363 20.0237C145.955 20.0237 144.835 20.5517 144.083 21.3037L145.075 22.5037C145.683 21.9117 146.467 21.6237 147.475 21.6237C148.387 21.6237 149.027 21.9437 149.027 22.4077C149.027 22.9517 148.499 23.2397 147.443 23.2397H145.859V24.8077H147.443C148.499 24.8077 149.171 25.0797 149.171 25.6717C149.171 26.1677 148.611 26.5037 147.571 26.5037C146.643 26.5037 145.619 26.2317 144.899 25.6237L143.971 26.8877C144.723 27.6237 145.971 28.1197 147.571 28.1197ZM159.729 27.9277V22.9357C159.729 20.7117 158.113 20.0077 156.353 20.0077C155.137 20.0077 153.921 20.3917 152.977 21.2237L153.745 22.5837C154.401 21.9757 155.169 21.6717 156.001 21.6717C157.025 21.6717 157.697 22.1837 157.697 22.9677V24.0077C157.185 23.3997 156.273 23.0637 155.249 23.0637C154.017 23.0637 152.561 23.7517 152.561 25.5597C152.561 27.2877 154.017 28.1197 155.249 28.1197C156.257 28.1197 157.169 27.7517 157.697 27.1277V27.9277H159.729ZM156.065 26.7437C155.265 26.7437 154.609 26.3277 154.609 25.6077C154.609 24.8557 155.265 24.4397 156.065 24.4397C156.721 24.4397 157.361 24.6637 157.697 25.1117V26.0717C157.361 26.5197 156.721 26.7437 156.065 26.7437ZM161.265 29.8957H163.313V27.9277H168.065V29.8957H170.097V26.1517H169.249V20.1997H162.993L162.497 23.9437C162.257 25.8157 161.889 26.1197 161.265 26.2317V29.8957ZM164.769 21.9757H167.217V26.1517H163.633C164.113 25.7037 164.417 25.0157 164.529 24.0717L164.769 21.9757Z" fill="white"/>
</svg>
