<svg width="532" height="42" viewBox="0 0 532 42" fill="none" xmlns="http://www.w3.org/2000/svg">
<path d="M71.2335 12C73.4295 12 74.7075 10.686 74.7075 8.76C74.7075 7.32 73.6455 6.006 72.3675 5.808C73.4655 5.574 74.4735 4.566 74.4735 3.054C74.4735 1.254 73.1955 -0.006001 71.1075 -0.006001H65.7615V12H71.2335ZM70.8555 5.196H67.2555V1.326H70.8555C72.2055 1.326 72.9255 2.19 72.9255 3.27C72.9255 4.368 72.2055 5.196 70.8555 5.196ZM70.9275 10.668H67.2555V6.528H70.9275C72.4035 6.528 73.1595 7.5 73.1595 8.598C73.1595 9.876 72.3315 10.668 70.9275 10.668ZM81.1319 12.216C82.5539 12.216 83.7239 11.748 84.5879 10.884L83.9399 10.002C83.2559 10.704 82.2479 11.1 81.2579 11.1C79.3859 11.1 78.2339 9.732 78.1259 8.094H85.1639V7.752C85.1639 5.142 83.6159 3.09 80.9879 3.09C78.5039 3.09 76.7039 5.124 76.7039 7.644C76.7039 10.362 78.5579 12.216 81.1319 12.216ZM83.8319 7.104H78.1259C78.1979 5.772 79.1159 4.206 80.9699 4.206C82.9499 4.206 83.8139 5.808 83.8319 7.104ZM91.8144 12.216C94.1004 12.216 95.6844 10.452 95.6844 7.644C95.6844 4.818 94.1004 3.09 91.8144 3.09C90.5904 3.09 89.5104 3.72 88.8804 4.602V3.306H87.5304V15.312H88.8804V10.686C89.5824 11.658 90.6264 12.216 91.8144 12.216ZM91.4724 11.01C90.4104 11.01 89.3484 10.362 88.8804 9.606V5.682C89.3484 4.926 90.4104 4.296 91.4724 4.296C93.2184 4.296 94.2624 5.718 94.2624 7.644C94.2624 9.57 93.2184 11.01 91.4724 11.01ZM101.809 12.216C104.455 12.216 106.111 10.164 106.111 7.644C106.111 5.124 104.455 3.09 101.809 3.09C99.1632 3.09 97.5072 5.124 97.5072 7.644C97.5072 10.164 99.1632 12.216 101.809 12.216ZM101.809 11.01C99.9552 11.01 98.9112 9.426 98.9112 7.644C98.9112 5.88 99.9552 4.296 101.809 4.296C103.663 4.296 104.689 5.88 104.689 7.644C104.689 9.426 103.663 11.01 101.809 11.01ZM109.788 12L111.912 8.634H114.288V12H115.638V3.306H111.048C109.284 3.306 108.294 4.494 108.294 5.97C108.294 7.428 109.23 8.418 110.526 8.58L108.204 12H109.788ZM111.192 7.446C110.202 7.446 109.68 6.834 109.68 5.97C109.68 5.106 110.238 4.494 111.192 4.494H114.288V7.446H111.192ZM121.45 12V4.494H123.988V3.306H117.58V4.494H120.1V12H121.45ZM127.288 12V8.112H131.824V12H133.174V3.306H131.824V6.924H127.288V3.306H125.938V12H127.288ZM139.974 12.216C141.396 12.216 142.566 11.748 143.43 10.884L142.782 10.002C142.098 10.704 141.09 11.1 140.1 11.1C138.228 11.1 137.076 9.732 136.968 8.094H144.006V7.752C144.006 5.142 142.458 3.09 139.83 3.09C137.346 3.09 135.546 5.124 135.546 7.644C135.546 10.362 137.4 12.216 139.974 12.216ZM142.674 7.104H136.968C137.04 5.772 137.958 4.206 139.812 4.206C141.792 4.206 142.656 5.808 142.674 7.104ZM147.668 12L152.258 5.232V12H153.608V3.306H152.276L147.722 9.948V3.306H146.372V12H147.668ZM153.14 0.731999L152.474 0.155999C151.916 0.965999 151.034 1.452 149.99 1.452C148.928 1.452 148.064 0.948 147.488 0.155999L146.822 0.731999C147.56 1.704 148.712 2.316 149.99 2.316C151.286 2.316 152.42 1.704 153.14 0.731999ZM166.182 12C167.784 12 168.72 11.046 168.72 9.642C168.72 8.652 168.018 7.734 167.136 7.518C167.874 7.284 168.54 6.582 168.54 5.538C168.54 4.224 167.622 3.306 166.092 3.306H161.304V12H166.182ZM165.912 10.812H162.654V8.13H165.912C166.83 8.13 167.316 8.778 167.316 9.48C167.316 10.308 166.776 10.812 165.912 10.812ZM165.858 6.942H162.654V4.494H165.858C166.686 4.494 167.154 4.98 167.154 5.736C167.154 6.42 166.704 6.942 165.858 6.942ZM175.285 12.216C176.869 12.216 177.805 11.568 178.471 10.704L177.571 9.876C176.995 10.65 176.257 11.01 175.357 11.01C173.503 11.01 172.351 9.57 172.351 7.644C172.351 5.718 173.503 4.296 175.357 4.296C176.257 4.296 176.995 4.638 177.571 5.43L178.471 4.602C177.805 3.738 176.869 3.09 175.285 3.09C172.693 3.09 170.947 5.07 170.947 7.644C170.947 10.236 172.693 12.216 175.285 12.216ZM184.467 12.216C185.889 12.216 187.059 11.748 187.923 10.884L187.275 10.002C186.591 10.704 185.583 11.1 184.593 11.1C182.721 11.1 181.569 9.732 181.461 8.094H188.499V7.752C188.499 5.142 186.951 3.09 184.323 3.09C181.839 3.09 180.039 5.124 180.039 7.644C180.039 10.362 181.893 12.216 184.467 12.216ZM187.167 7.104H181.461C181.533 5.772 182.451 4.206 184.305 4.206C186.285 4.206 187.149 5.808 187.167 7.104ZM196.95 3.306H190.866V12H192.216V4.494H196.95V3.306ZM202.684 12.216C205.33 12.216 206.986 10.164 206.986 7.644C206.986 5.124 205.33 3.09 202.684 3.09C200.038 3.09 198.382 5.124 198.382 7.644C198.382 10.164 200.038 12.216 202.684 12.216ZM202.684 11.01C200.83 11.01 199.786 9.426 199.786 7.644C199.786 5.88 200.83 4.296 202.684 4.296C204.538 4.296 205.564 5.88 205.564 7.644C205.564 9.426 204.538 11.01 202.684 11.01ZM211.061 11.568C211.061 10.704 210.521 10.2 209.927 10.2C209.387 10.2 208.973 10.65 208.973 11.172C208.973 11.712 209.333 12.09 209.837 12.09C209.927 12.09 210.053 12.072 210.089 12.054C210.017 12.648 209.495 13.35 208.919 13.728L209.585 14.286C210.413 13.692 211.061 12.666 211.061 11.568ZM223.271 12C224.873 12 225.809 11.046 225.809 9.642C225.809 8.652 225.107 7.734 224.225 7.518C224.963 7.284 225.629 6.582 225.629 5.538C225.629 4.224 224.711 3.306 223.181 3.306H218.393V12H223.271ZM223.001 10.812H219.743V8.13H223.001C223.919 8.13 224.405 8.778 224.405 9.48C224.405 10.308 223.865 10.812 223.001 10.812ZM222.947 6.942H219.743V4.494H222.947C223.775 4.494 224.243 4.98 224.243 5.736C224.243 6.42 223.793 6.942 222.947 6.942ZM228.539 3.306V12H233.147C234.929 12 235.883 10.776 235.883 9.336C235.883 7.914 234.947 6.672 233.147 6.672H229.889V3.306H228.539ZM233.003 7.86C233.993 7.86 234.497 8.49 234.497 9.336C234.497 10.2 233.975 10.812 233.003 10.812H229.889V7.86H233.003ZM238.655 12V3.306H237.305V12H238.655ZM247.704 12V8.112H252.24V12H253.59V3.306H252.24V6.924H247.704V3.306H246.354V12H247.704ZM260.39 12.216C261.812 12.216 262.982 11.748 263.846 10.884L263.198 10.002C262.514 10.704 261.506 11.1 260.516 11.1C258.644 11.1 257.492 9.732 257.384 8.094H264.422V7.752C264.422 5.142 262.874 3.09 260.246 3.09C257.762 3.09 255.962 5.124 255.962 7.644C255.962 10.362 257.816 12.216 260.39 12.216ZM263.09 7.104H257.384C257.456 5.772 258.374 4.206 260.228 4.206C262.208 4.206 263.072 5.808 263.09 7.104ZM274.687 12.216C277.189 12.216 278.665 11.136 278.665 9.678C278.665 8.238 277.153 7.626 276.145 7.554C277.171 7.428 278.485 6.726 278.485 5.43C278.485 3.954 276.829 3.09 274.489 3.108C272.905 3.108 271.735 3.666 270.925 4.494L271.627 5.322C272.365 4.566 273.319 4.206 274.543 4.206C275.983 4.206 277.081 4.764 277.081 5.592C277.081 6.582 275.947 7.05 274.507 7.05H272.563V8.148H274.507C276.037 8.148 277.243 8.508 277.243 9.588C277.243 10.506 276.235 11.1 274.687 11.1C273.391 11.1 272.239 10.704 271.429 9.93L270.763 10.794C271.627 11.658 272.941 12.216 274.687 12.216ZM287.821 12V6.024C287.821 3.918 286.291 3.09 284.455 3.09C283.033 3.09 281.917 3.558 280.981 4.53L281.611 5.466C282.385 4.638 283.231 4.26 284.275 4.26C285.535 4.26 286.471 4.926 286.471 6.096V7.662C285.769 6.852 284.779 6.474 283.591 6.474C282.115 6.474 280.549 7.392 280.549 9.336C280.549 11.226 282.115 12.216 283.591 12.216C284.761 12.216 285.751 11.802 286.471 11.01V12H287.821ZM284.077 11.244C282.817 11.244 281.935 10.452 281.935 9.354C281.935 8.238 282.817 7.446 284.077 7.446C285.031 7.446 285.949 7.806 286.471 8.526V10.164C285.949 10.884 285.031 11.244 284.077 11.244ZM298.358 12L294.488 7.248L298.34 3.306H296.63L292.058 7.932V3.306H290.708V12H292.058V9.516L293.498 8.094L296.63 12H298.358ZM306.92 12V6.024C306.92 3.918 305.39 3.09 303.554 3.09C302.132 3.09 301.016 3.558 300.08 4.53L300.71 5.466C301.484 4.638 302.33 4.26 303.374 4.26C304.634 4.26 305.57 4.926 305.57 6.096V7.662C304.868 6.852 303.878 6.474 302.69 6.474C301.214 6.474 299.648 7.392 299.648 9.336C299.648 11.226 301.214 12.216 302.69 12.216C303.86 12.216 304.85 11.802 305.57 11.01V12H306.92ZM303.176 11.244C301.916 11.244 301.034 10.452 301.034 9.354C301.034 8.238 301.916 7.446 303.176 7.446C304.13 7.446 305.048 7.806 305.57 8.526V10.164C305.048 10.884 304.13 11.244 303.176 11.244ZM312.884 12.216C315.386 12.216 316.862 11.136 316.862 9.678C316.862 8.238 315.35 7.626 314.342 7.554C315.368 7.428 316.682 6.726 316.682 5.43C316.682 3.954 315.026 3.09 312.686 3.108C311.102 3.108 309.932 3.666 309.122 4.494L309.824 5.322C310.562 4.566 311.516 4.206 312.74 4.206C314.18 4.206 315.278 4.764 315.278 5.592C315.278 6.582 314.144 7.05 312.704 7.05H310.76V8.148H312.704C314.234 8.148 315.44 8.508 315.44 9.588C315.44 10.506 314.432 11.1 312.884 11.1C311.588 11.1 310.436 10.704 309.626 9.93L308.96 10.794C309.824 11.658 311.138 12.216 312.884 12.216ZM319.232 3.306V12H323.84C325.622 12 326.576 10.776 326.576 9.336C326.576 7.914 325.64 6.672 323.84 6.672H320.582V3.306H319.232ZM323.696 7.86C324.686 7.86 325.19 8.49 325.19 9.336C325.19 10.2 324.668 10.812 323.696 10.812H320.582V7.86H323.696ZM329.348 12V3.306H327.998V12H329.348ZM337.104 12C338.706 12 339.642 11.046 339.642 9.642C339.642 8.652 338.94 7.734 338.058 7.518C338.796 7.284 339.462 6.582 339.462 5.538C339.462 4.224 338.544 3.306 337.014 3.306H332.226V12H337.104ZM336.834 10.812H333.576V8.13H336.834C337.752 8.13 338.238 8.778 338.238 9.48C338.238 10.308 337.698 10.812 336.834 10.812ZM336.78 6.942H333.576V4.494H336.78C337.608 4.494 338.076 4.98 338.076 5.736C338.076 6.42 337.626 6.942 336.78 6.942ZM349.159 12V6.024C349.159 3.918 347.629 3.09 345.793 3.09C344.371 3.09 343.255 3.558 342.319 4.53L342.949 5.466C343.723 4.638 344.569 4.26 345.613 4.26C346.873 4.26 347.809 4.926 347.809 6.096V7.662C347.107 6.852 346.117 6.474 344.929 6.474C343.453 6.474 341.887 7.392 341.887 9.336C341.887 11.226 343.453 12.216 344.929 12.216C346.099 12.216 347.089 11.802 347.809 11.01V12H349.159ZM345.415 11.244C344.155 11.244 343.273 10.452 343.273 9.354C343.273 8.238 344.155 7.446 345.415 7.446C346.369 7.446 347.287 7.806 347.809 8.526V10.164C347.287 10.884 346.369 11.244 345.415 11.244ZM351.019 12.216C352.693 12.216 353.629 10.992 354.025 7.752L354.421 4.494H357.931V12H359.281V3.306H353.233L352.675 7.59C352.333 10.164 351.829 11.1 351.019 11.1V12.216ZM363.453 12L368.043 5.232V12H369.393V3.306H368.061L363.507 9.948V3.306H362.157V12H363.453ZM381.013 12.216C382.435 12.216 383.605 11.748 384.469 10.884L383.821 10.002C383.137 10.704 382.129 11.1 381.139 11.1C379.267 11.1 378.115 9.732 378.007 8.094H385.045V7.752C385.045 5.142 383.497 3.09 380.869 3.09C378.385 3.09 376.585 5.124 376.585 7.644C376.585 10.362 378.439 12.216 381.013 12.216ZM383.713 7.104H378.007C378.079 5.772 378.997 4.206 380.851 4.206C382.831 4.206 383.695 5.808 383.713 7.104ZM397.456 3.306V10.812H393.784V3.306H392.434V10.812H388.762V3.306H387.412V12H398.572V14.214H399.922V10.812H398.806V3.306H397.456ZM408.433 1.128C408.433 0.678 408.037 0.299999 407.587 0.299999C407.137 0.299999 406.741 0.678 406.741 1.128C406.741 1.596 407.137 1.974 407.587 1.974C408.037 1.974 408.433 1.596 408.433 1.128ZM404.707 1.128C404.707 0.678 404.329 0.299999 403.879 0.299999C403.411 0.299999 403.033 0.678 403.033 1.128C403.033 1.596 403.411 1.974 403.879 1.974C404.329 1.974 404.707 1.596 404.707 1.128ZM405.877 12.216C407.299 12.216 408.469 11.748 409.333 10.884L408.685 10.002C408.001 10.704 406.993 11.1 406.003 11.1C404.131 11.1 402.979 9.732 402.871 8.094H409.909V7.752C409.909 5.142 408.361 3.09 405.733 3.09C403.249 3.09 401.449 5.124 401.449 7.644C401.449 10.362 403.303 12.216 405.877 12.216ZM408.577 7.104H402.871C402.943 5.772 403.861 4.206 405.715 4.206C407.695 4.206 408.559 5.808 408.577 7.104ZM424.332 12V3.306H417.096V12H418.446V4.494H422.982V12H424.332ZM428.504 12L433.094 5.232V12H434.444V3.306H433.112L428.558 9.948V3.306H427.208V12H428.504ZM444.214 14.214H445.564V10.812H444.556V3.306H443.206V10.812H438.67V3.306H437.32V12H444.214V14.214ZM454.484 14.214H455.834V10.812H454.826V3.306H453.476V10.812H448.94V3.306H447.59V12H454.484V14.214ZM457.373 15.402C457.625 15.474 458.075 15.528 458.363 15.528C459.515 15.51 460.397 15.024 460.919 13.764L465.275 3.306H463.799L460.919 10.434L458.021 3.306H456.563L460.199 12.09L459.623 13.404C459.317 14.124 458.921 14.322 458.327 14.322C458.111 14.322 457.787 14.268 457.589 14.178L457.373 15.402ZM466.564 12.18C467.104 12.18 467.554 11.73 467.554 11.19C467.554 10.65 467.104 10.2 466.564 10.2C466.024 10.2 465.574 10.65 465.574 11.19C465.574 11.73 466.024 12.18 466.564 12.18ZM0.906627 40.214H2.40063V38H11.3466V40.214H12.8406V36.668H11.7426V25.994H4.39863L3.66063 32.024C3.15663 36.092 2.34663 36.704 0.906627 36.794V40.214ZM5.13663 32.132L5.73063 27.326H10.2486V36.668H3.30063C4.18263 36.002 4.83063 34.67 5.13663 32.132ZM13.8424 38.216C15.5164 38.216 16.4524 36.992 16.8484 33.752L17.2444 30.494H20.7544V38H22.1044V29.306H16.0564L15.4984 33.59C15.1564 36.164 14.6524 37.1 13.8424 37.1V38.216ZM26.2761 38L28.4001 34.634H30.7761V38H32.1261V29.306H27.5361C25.7721 29.306 24.7821 30.494 24.7821 31.97C24.7821 33.428 25.7181 34.418 27.0141 34.58L24.6921 38H26.2761ZM27.6801 33.446C26.6901 33.446 26.1681 32.834 26.1681 31.97C26.1681 31.106 26.7261 30.494 27.6801 30.494H30.7761V33.446H27.6801ZM42.7585 38V30.494H45.2965V29.306H38.8885V30.494H41.4085V38H42.7585ZM51.0446 38.216C53.6906 38.216 55.3466 36.164 55.3466 33.644C55.3466 31.124 53.6906 29.09 51.0446 29.09C48.3986 29.09 46.7426 31.124 46.7426 33.644C46.7426 36.164 48.3986 38.216 51.0446 38.216ZM51.0446 37.01C49.1906 37.01 48.1466 35.426 48.1466 33.644C48.1466 31.88 49.1906 30.296 51.0446 30.296C52.8986 30.296 53.9246 31.88 53.9246 33.644C53.9246 35.426 52.8986 37.01 51.0446 37.01ZM63.8114 29.306H57.7274V38H59.0774V30.494H63.8114V29.306ZM69.5453 38.216C72.1913 38.216 73.8473 36.164 73.8473 33.644C73.8473 31.124 72.1913 29.09 69.5453 29.09C66.8993 29.09 65.2433 31.124 65.2433 33.644C65.2433 36.164 66.8993 38.216 69.5453 38.216ZM69.5453 37.01C67.6913 37.01 66.6473 35.426 66.6473 33.644C66.6473 31.88 67.6913 30.296 69.5453 30.296C71.3993 30.296 72.4253 31.88 72.4253 33.644C72.4253 35.426 71.3993 37.01 69.5453 37.01ZM77.923 37.568C77.923 36.704 77.383 36.2 76.789 36.2C76.249 36.2 75.835 36.65 75.835 37.172C75.835 37.712 76.195 38.09 76.699 38.09C76.789 38.09 76.915 38.072 76.951 38.054C76.879 38.648 76.357 39.35 75.781 39.728L76.447 40.286C77.275 39.692 77.923 38.666 77.923 37.568ZM85.0741 29.306V32.168C85.0741 34.148 86.0281 35.03 88.2961 35.03C89.2861 35.03 90.2941 34.778 90.9421 34.454V38H92.2921V29.306H90.9421V33.356C90.4201 33.626 89.5381 33.824 88.6381 33.824C87.1981 33.824 86.4241 33.374 86.4241 31.754V29.306H85.0741ZM98.1063 38V30.494H100.644V29.306H94.2363V30.494H96.7563V38H98.1063ZM106.393 38.216C109.039 38.216 110.695 36.164 110.695 33.644C110.695 31.124 109.039 29.09 106.393 29.09C103.747 29.09 102.091 31.124 102.091 33.644C102.091 36.164 103.747 38.216 106.393 38.216ZM106.393 37.01C104.539 37.01 103.495 35.426 103.495 33.644C103.495 31.88 104.539 30.296 106.393 30.296C108.247 30.296 109.273 31.88 109.273 33.644C109.273 35.426 108.247 37.01 106.393 37.01ZM116.873 37.01C115.019 37.01 113.975 35.426 113.975 33.626C113.975 31.88 115.019 30.296 116.873 30.296C118.727 30.296 119.753 31.88 119.753 33.626C119.753 35.426 118.727 37.01 116.873 37.01ZM116.873 38.216C119.555 38.216 121.157 36.128 121.157 33.626C121.157 31.16 119.555 29.09 117.089 29.09C115.541 29.09 114.443 29.954 113.813 30.944C114.119 29.468 114.893 28.352 117.467 27.992C118.943 27.794 120.887 27.416 120.887 25.994H119.573C119.573 26.354 119.033 26.588 117.125 26.876C114.101 27.272 112.571 29.018 112.571 33.248C112.571 36.128 114.209 38.216 116.873 38.216ZM123.644 29.306V38H128.252C130.034 38 130.988 36.776 130.988 35.336C130.988 33.914 130.052 32.672 128.252 32.672H124.994V29.306H123.644ZM128.108 33.86C129.098 33.86 129.602 34.49 129.602 35.336C129.602 36.2 129.08 36.812 128.108 36.812H124.994V33.86H128.108ZM133.76 38V29.306H132.41V38H133.76ZM144.537 38.216C147.039 38.216 148.515 37.136 148.515 35.678C148.515 34.238 147.003 33.626 145.995 33.554C147.021 33.428 148.335 32.726 148.335 31.43C148.335 29.954 146.679 29.09 144.339 29.108C142.755 29.108 141.585 29.666 140.775 30.494L141.477 31.322C142.215 30.566 143.169 30.206 144.393 30.206C145.833 30.206 146.931 30.764 146.931 31.592C146.931 32.582 145.797 33.05 144.357 33.05H142.413V34.148H144.357C145.887 34.148 147.093 34.508 147.093 35.588C147.093 36.506 146.085 37.1 144.537 37.1C143.241 37.1 142.089 36.704 141.279 35.93L140.613 36.794C141.477 37.658 142.791 38.216 144.537 38.216ZM157.671 38V32.024C157.671 29.918 156.141 29.09 154.305 29.09C152.883 29.09 151.767 29.558 150.831 30.53L151.461 31.466C152.235 30.638 153.081 30.26 154.125 30.26C155.385 30.26 156.321 30.926 156.321 32.096V33.662C155.619 32.852 154.629 32.474 153.441 32.474C151.965 32.474 150.399 33.392 150.399 35.336C150.399 37.226 151.965 38.216 153.441 38.216C154.611 38.216 155.601 37.802 156.321 37.01V38H157.671ZM153.927 37.244C152.667 37.244 151.785 36.452 151.785 35.354C151.785 34.238 152.667 33.446 153.927 33.446C154.881 33.446 155.799 33.806 156.321 34.526V36.164C155.799 36.884 154.881 37.244 153.927 37.244ZM168.207 38L164.337 33.248L168.189 29.306H166.479L161.907 33.932V29.306H160.557V38H161.907V35.516L163.347 34.094L166.479 38H168.207ZM176.769 38V32.024C176.769 29.918 175.239 29.09 173.403 29.09C171.981 29.09 170.865 29.558 169.929 30.53L170.559 31.466C171.333 30.638 172.179 30.26 173.223 30.26C174.483 30.26 175.419 30.926 175.419 32.096V33.662C174.717 32.852 173.727 32.474 172.539 32.474C171.063 32.474 169.497 33.392 169.497 35.336C169.497 37.226 171.063 38.216 172.539 38.216C173.709 38.216 174.699 37.802 175.419 37.01V38H176.769ZM173.025 37.244C171.765 37.244 170.883 36.452 170.883 35.354C170.883 34.238 171.765 33.446 173.025 33.446C173.979 33.446 174.897 33.806 175.419 34.526V36.164C174.897 36.884 173.979 37.244 173.025 37.244ZM182.734 38.216C185.236 38.216 186.712 37.136 186.712 35.678C186.712 34.238 185.2 33.626 184.192 33.554C185.218 33.428 186.532 32.726 186.532 31.43C186.532 29.954 184.876 29.09 182.536 29.108C180.952 29.108 179.782 29.666 178.972 30.494L179.674 31.322C180.412 30.566 181.366 30.206 182.59 30.206C184.03 30.206 185.128 30.764 185.128 31.592C185.128 32.582 183.994 33.05 182.554 33.05H180.61V34.148H182.554C184.084 34.148 185.29 34.508 185.29 35.588C185.29 36.506 184.282 37.1 182.734 37.1C181.438 37.1 180.286 36.704 179.476 35.93L178.81 36.794C179.674 37.658 180.988 38.216 182.734 38.216ZM195.868 38V32.024C195.868 29.918 194.338 29.09 192.502 29.09C191.08 29.09 189.964 29.558 189.028 30.53L189.658 31.466C190.432 30.638 191.278 30.26 192.322 30.26C193.582 30.26 194.518 30.926 194.518 32.096V33.662C193.816 32.852 192.826 32.474 191.638 32.474C190.162 32.474 188.596 33.392 188.596 35.336C188.596 37.226 190.162 38.216 191.638 38.216C192.808 38.216 193.798 37.802 194.518 37.01V38H195.868ZM192.124 37.244C190.864 37.244 189.982 36.452 189.982 35.354C189.982 34.238 190.864 33.446 192.124 33.446C193.078 33.446 193.996 33.806 194.518 34.526V36.164C193.996 36.884 193.078 37.244 192.124 37.244ZM201.688 38V30.494H204.226V29.306H197.818V30.494H200.338V38H201.688ZM206.176 29.306V38H210.784C212.566 38 213.52 36.776 213.52 35.336C213.52 33.914 212.584 32.672 210.784 32.672H207.526V29.306H206.176ZM210.64 33.86C211.63 33.86 212.134 34.49 212.134 35.336C212.134 36.2 211.612 36.812 210.64 36.812H207.526V33.86H210.64ZM227.817 38V29.306H220.581V38H221.931V30.494H226.467V38H227.817ZM231.989 38L236.579 31.232V38H237.929V29.306H236.597L232.043 35.948V29.306H230.693V38H231.989ZM247.698 40.214H249.048V36.812H248.04V29.306H246.69V36.812H242.154V29.306H240.804V38H247.698V40.214ZM257.968 40.214H259.318V36.812H258.31V29.306H256.96V36.812H252.424V29.306H251.074V38H257.968V40.214ZM260.858 41.402C261.11 41.474 261.56 41.528 261.848 41.528C263 41.51 263.882 41.024 264.404 39.764L268.76 29.306H267.284L264.404 36.434L261.506 29.306H260.048L263.684 38.09L263.108 39.404C262.802 40.124 262.406 40.322 261.812 40.322C261.596 40.322 261.272 40.268 261.074 40.178L260.858 41.402ZM271.147 37.568C271.147 36.704 270.607 36.2 270.013 36.2C269.473 36.2 269.059 36.65 269.059 37.172C269.059 37.712 269.419 38.09 269.923 38.09C270.013 38.09 270.139 38.072 270.175 38.054C270.103 38.648 269.581 39.35 269.005 39.728L269.671 40.286C270.499 39.692 271.147 38.666 271.147 37.568ZM285.714 38V29.306H278.478V38H279.828V30.494H284.364V38H285.714ZM292.513 38.216C293.935 38.216 295.105 37.748 295.969 36.884L295.321 36.002C294.637 36.704 293.629 37.1 292.639 37.1C290.767 37.1 289.615 35.732 289.507 34.094H296.545V33.752C296.545 31.142 294.997 29.09 292.369 29.09C289.885 29.09 288.085 31.124 288.085 33.644C288.085 36.362 289.939 38.216 292.513 38.216ZM295.213 33.104H289.507C289.579 31.772 290.497 30.206 292.351 30.206C294.331 30.206 295.195 31.808 295.213 33.104ZM303.196 38.216C305.482 38.216 307.066 36.452 307.066 33.644C307.066 30.818 305.482 29.09 303.196 29.09C301.972 29.09 300.892 29.72 300.262 30.602V29.306H298.912V41.312H300.262V36.686C300.964 37.658 302.008 38.216 303.196 38.216ZM302.854 37.01C301.792 37.01 300.73 36.362 300.262 35.606V31.682C300.73 30.926 301.792 30.296 302.854 30.296C304.6 30.296 305.644 31.718 305.644 33.644C305.644 35.57 304.6 37.01 302.854 37.01ZM313.317 38.216C314.739 38.216 315.909 37.748 316.773 36.884L316.125 36.002C315.441 36.704 314.433 37.1 313.443 37.1C311.571 37.1 310.419 35.732 310.311 34.094H317.349V33.752C317.349 31.142 315.801 29.09 313.173 29.09C310.689 29.09 308.889 31.124 308.889 33.644C308.889 36.362 310.743 38.216 313.317 38.216ZM316.017 33.104H310.311C310.383 31.772 311.301 30.206 313.155 30.206C315.135 30.206 315.999 31.808 316.017 33.104ZM321.011 38L325.601 31.232V38H326.951V29.306H325.619L321.065 35.948V29.306H319.715V38H321.011ZM326.483 26.732L325.817 26.156C325.259 26.966 324.377 27.452 323.333 27.452C322.271 27.452 321.407 26.948 320.831 26.156L320.165 26.732C320.903 27.704 322.055 28.316 323.333 28.316C324.629 28.316 325.763 27.704 326.483 26.732ZM328.801 40.214H330.151V38H336.721V40.214H338.071V36.812H337.063V29.306H331.015L330.457 33.59C330.115 36.164 329.611 36.74 328.801 36.884V40.214ZM332.203 30.494H335.713V36.812H330.547C331.177 36.308 331.591 35.39 331.807 33.752L332.203 30.494ZM341.393 38L345.983 31.232V38H347.333V29.306H346.001L341.447 35.948V29.306H340.097V38H341.393ZM356.379 38V34.112H360.915V38H362.265V29.306H360.915V32.924H356.379V29.306H355.029V38H356.379ZM371.927 38V32.024C371.927 29.918 370.397 29.09 368.561 29.09C367.139 29.09 366.023 29.558 365.087 30.53L365.717 31.466C366.491 30.638 367.337 30.26 368.381 30.26C369.641 30.26 370.577 30.926 370.577 32.096V33.662C369.875 32.852 368.885 32.474 367.697 32.474C366.221 32.474 364.655 33.392 364.655 35.336C364.655 37.226 366.221 38.216 367.697 38.216C368.867 38.216 369.857 37.802 370.577 37.01V38H371.927ZM368.183 37.244C366.923 37.244 366.041 36.452 366.041 35.354C366.041 34.238 366.923 33.446 368.183 33.446C369.137 33.446 370.055 33.806 370.577 34.526V36.164C370.055 36.884 369.137 37.244 368.183 37.244ZM385.718 29.306H379.634V38H380.984V30.494H385.718V29.306ZM385.854 38.216C387.528 38.216 388.464 36.992 388.86 33.752L389.256 30.494H392.766V38H394.116V29.306H388.068L387.51 33.59C387.168 36.164 386.664 37.1 385.854 37.1V38.216ZM403.778 38V32.024C403.778 29.918 402.248 29.09 400.412 29.09C398.99 29.09 397.874 29.558 396.938 30.53L397.568 31.466C398.342 30.638 399.188 30.26 400.232 30.26C401.492 30.26 402.428 30.926 402.428 32.096V33.662C401.726 32.852 400.736 32.474 399.548 32.474C398.072 32.474 396.506 33.392 396.506 35.336C396.506 37.226 398.072 38.216 399.548 38.216C400.718 38.216 401.708 37.802 402.428 37.01V38H403.778ZM400.034 37.244C398.774 37.244 397.892 36.452 397.892 35.354C397.892 34.238 398.774 33.446 400.034 33.446C400.988 33.446 401.906 33.806 402.428 34.526V36.164C401.906 36.884 400.988 37.244 400.034 37.244ZM411.542 38C413.144 38 414.08 37.046 414.08 35.642C414.08 34.652 413.378 33.734 412.496 33.518C413.234 33.284 413.9 32.582 413.9 31.538C413.9 30.224 412.982 29.306 411.452 29.306H406.664V38H411.542ZM411.272 36.812H408.014V34.13H411.272C412.19 34.13 412.676 34.778 412.676 35.48C412.676 36.308 412.136 36.812 411.272 36.812ZM411.218 32.942H408.014V30.494H411.218C412.046 30.494 412.514 30.98 412.514 31.736C412.514 32.42 412.064 32.942 411.218 32.942ZM418.161 38V34.112H422.697V38H424.047V29.306H422.697V32.924H418.161V29.306H416.811V38H418.161ZM426.436 41.402C426.688 41.474 427.138 41.528 427.426 41.528C428.578 41.51 429.46 41.024 429.982 39.764L434.338 29.306H432.862L429.982 36.434L427.084 29.306H425.626L429.262 38.09L428.686 39.404C428.38 40.124 427.984 40.322 427.39 40.322C427.174 40.322 426.85 40.268 426.652 40.178L426.436 41.402ZM443.216 38.216C445.88 38.216 447.536 36.164 447.536 33.644C447.536 31.124 445.88 29.09 443.216 29.09C440.84 29.09 439.256 30.746 438.968 32.924H437.276V29.306H435.926V38H437.276V34.112H438.95C439.13 36.416 440.75 38.216 443.216 38.216ZM443.216 37.01C441.38 37.01 440.336 35.426 440.336 33.644C440.336 31.88 441.38 30.296 443.216 30.296C445.088 30.296 446.114 31.88 446.114 33.644C446.114 35.426 445.088 37.01 443.216 37.01ZM458.56 38.216C460.144 38.216 461.08 37.568 461.746 36.704L460.846 35.876C460.27 36.65 459.532 37.01 458.632 37.01C456.778 37.01 455.626 35.57 455.626 33.644C455.626 31.718 456.778 30.296 458.632 30.296C459.532 30.296 460.27 30.638 460.846 31.43L461.746 30.602C461.08 29.738 460.144 29.09 458.56 29.09C455.968 29.09 454.222 31.07 454.222 33.644C454.222 36.236 455.968 38.216 458.56 38.216ZM466.752 38V30.494H469.29V29.306H462.882V30.494H465.402V38H466.752ZM475.524 38.216C477.81 38.216 479.394 36.452 479.394 33.644C479.394 30.818 477.81 29.09 475.524 29.09C474.3 29.09 473.22 29.72 472.59 30.602V29.306H471.24V41.312H472.59V36.686C473.292 37.658 474.336 38.216 475.524 38.216ZM475.182 37.01C474.12 37.01 473.058 36.362 472.59 35.606V31.682C473.058 30.926 474.12 30.296 475.182 30.296C476.928 30.296 477.972 31.718 477.972 33.644C477.972 35.57 476.928 37.01 475.182 37.01ZM488.507 38V32.024C488.507 29.918 486.977 29.09 485.141 29.09C483.719 29.09 482.603 29.558 481.667 30.53L482.297 31.466C483.071 30.638 483.917 30.26 484.961 30.26C486.221 30.26 487.157 30.926 487.157 32.096V33.662C486.455 32.852 485.465 32.474 484.277 32.474C482.801 32.474 481.235 33.392 481.235 35.336C481.235 37.226 482.801 38.216 484.277 38.216C485.447 38.216 486.437 37.802 487.157 37.01V38H488.507ZM484.763 37.244C483.503 37.244 482.621 36.452 482.621 35.354C482.621 34.238 483.503 33.446 484.763 33.446C485.717 33.446 486.635 33.806 487.157 34.526V36.164C486.635 36.884 485.717 37.244 484.763 37.244ZM492.743 38V34.112H497.279V38H498.629V29.306H497.279V32.924H492.743V29.306H491.393V38H492.743ZM502.801 38L507.391 31.232V38H508.741V29.306H507.409L502.855 35.948V29.306H501.505V38H502.801ZM518.51 40.214H519.86V36.812H518.852V29.306H517.502V36.812H512.966V29.306H511.616V38H518.51V40.214ZM521.4 41.402C521.652 41.474 522.102 41.528 522.39 41.528C523.542 41.51 524.424 41.024 524.946 39.764L529.302 29.306H527.826L524.946 36.434L522.048 29.306H520.59L524.226 38.09L523.65 39.404C523.344 40.124 522.948 40.322 522.354 40.322C522.138 40.322 521.814 40.268 521.616 40.178L521.4 41.402ZM530.591 38.18C531.131 38.18 531.581 37.73 531.581 37.19C531.581 36.65 531.131 36.2 530.591 36.2C530.051 36.2 529.601 36.65 529.601 37.19C529.601 37.73 530.051 38.18 530.591 38.18Z" fill="#777777"/>
</svg>
